<?xml version="1.0" encoding="utf-8" ?>
<svg xmlns="http://www.w3.org/2000/svg" xmlns:xlink="http://www.w3.org/1999/xlink" width="1024" height="1024">
	<path d="M891.034 278.316C892.933 279.278 894.938 282.422 896.236 284.085C897.835 286.135 903.101 292.171 902.779 294.768C899.637 297.222 899.532 295.202 896.537 295.487C892.024 299.582 884.403 321.968 881.304 328.661C893.541 328.363 905.707 325.628 917.922 324.848L915.004 318.84C916.009 317.741 917.146 316.735 918.226 315.708C921.139 319.04 929.891 329.454 929.46 334.085C929.322 335.564 928.98 335.801 927.969 336.779L926.777 336.673C924.321 335.146 922.702 332.522 920.972 330.246Q904.812 332.477 888.59 334.196C874.187 335.42 866.344 343.749 855.635 352.366C856.586 354.088 857.853 356.015 858.387 357.909C858.807 359.397 858.807 360.774 858.089 362.157L857.131 362.284C852.346 359.679 846.331 349.056 843.349 344.201C844.373 342.903 845.579 341.707 846.704 340.493C848.795 342.699 850.675 345.088 852.59 347.446C858.489 342.28 865.54 338.153 871.078 332.667C879.918 323.909 887.282 300.024 892.003 288.013C890.464 286.024 889.186 283.783 887.841 281.657L891.034 278.316Z"/>
	<path d="M124.839 285.818C129.881 288.383 134.818 291.019 139.66 293.95L137.834 298.796C134.159 297.535 130.553 295.943 126.945 294.496C120.192 303.014 114.181 312.032 108.139 321.056C116.379 327.644 124.905 333.9 133.321 340.261C136.487 335.772 151.652 312.97 155.261 311.338C156.123 310.948 155.754 311.031 156.75 311.447C156.787 311.588 156.841 311.726 156.862 311.87C157.526 316.582 141.279 338.224 137.913 343.375C145.975 349.286 154.218 355.083 161.664 361.771C168.477 352.375 175.158 342.957 181.399 333.169C181.874 332.343 182.706 331.366 182.625 330.397C182.415 327.872 179.586 326.016 177.813 324.467L182.031 320.267L191.726 329.746C179.487 344.718 168.47 363.207 157.462 379.307C155.947 378.323 154.391 377.42 152.83 376.512C154.581 373.223 156.502 370.175 158.653 367.135C139.976 354.047 122.656 338.656 103.422 326.381L99.9164 330.307L95.3091 327.249C105.622 313.493 116.373 300.887 124.839 285.818Z"/>
	<path d="M488.648 111.505L545.25 111.381C545.362 117.045 545.758 124.056 544.609 129.58C544.207 131.514 543.665 132.692 542.02 133.811C541.246 133.676 541.076 133.778 540.492 133.16C537.367 129.852 538.48 121.827 538.517 117.526C526.761 116.373 514.314 116.847 502.507 117.213C502.08 128.267 502.364 139.452 502.57 150.511C508.649 150.421 525.817 149.235 530.869 151.169C531.879 151.555 531.531 151.303 532.004 152.346C531.883 153.766 531.979 154.362 531.119 155.529C525.53 157.661 509.497 156.4 502.669 156.467C502.503 160.846 502.56 165.243 502.544 169.625C502.541 175.034 502.756 180.395 503.044 185.794L537.971 185.51C537.941 181.49 536.913 173.255 539.381 169.941C540.145 169.529 540.538 169.325 541.435 169.329C542.218 169.332 542.694 169.647 543.179 170.288C545.427 173.258 544.128 187.01 544.044 191.338C533.598 191.557 523.129 191.485 512.681 191.535C505.872 191.568 498.415 192.216 491.719 191.069C490.804 190.164 490.794 189.965 490.511 188.693C490.817 187.813 491.033 187.228 491.781 186.609C492.825 185.746 494.033 185.376 495.37 185.522C495.607 185.548 495.839 185.607 496.074 185.649C497.136 184.452 495.963 123.497 495.927 117.212C494.329 117.086 492.675 117.039 491.096 116.773C489.75 116.545 488.821 116.133 487.977 115.03C487.769 113.355 487.998 113.007 488.648 111.505Z"/>
	<path d="M205.682 213.342C207.348 214.026 208.503 215.78 209.64 217.142L204.77 221.781C215.982 238.223 230.471 256.47 243.596 271.418L248.185 267.898C249.323 269.622 250.376 271.416 251.464 273.173C247.135 276.652 242.839 280.111 238.258 283.259C230.546 280.448 222.462 278.457 214.552 276.271C197.119 271.454 179.277 266.772 162.682 259.5C177.387 275.558 190.908 292.906 204.705 309.754C206 308.11 207.375 306.519 208.712 304.908L212.584 309.034C208.275 314.013 203.981 319.012 198.835 323.157C196.808 322.623 196.014 320.956 194.904 319.326L200.644 313.77C185.792 297.277 171.194 279.938 157.647 262.362L152.886 266.208L150.165 262.514Q155.01 257.122 160.606 252.515C186.214 260.907 211.705 269.11 237.776 276.012C233.688 269.364 228.55 263.203 223.764 257.046Q211.678 241.536 199.315 226.247L195.243 229.275L191.551 224.489L205.682 213.342Z"/>
	<path d="M752.045 168.288C755.708 170.124 758.988 172.49 762.034 175.215Q762.517 205.468 763.573 235.707C763.928 244.462 763.827 253.637 765.129 262.3Q780.92 232.125 797.46 202.353C796.364 201.325 795.359 200.202 794.331 199.107C794.94 197.642 795.665 196.228 796.36 194.802C800.614 197.142 805.639 199.94 809.18 203.275C810.15 204.187 810.432 204.761 810.446 206.06C809.804 206.896 809.015 207.221 807.984 207.432C806.283 207.778 804.533 206.496 803.114 205.696C798.214 213.744 770.758 268.448 767.302 270.728L765.255 269.667Q762.085 267.41 758.867 265.222C757.598 255.971 757.891 246.333 757.61 237.001C757.054 218.541 756.772 200.026 755.954 181.581Q745.404 200.332 735.103 219.22C731.657 225.439 728.467 231.962 724.443 237.827C726.449 238.982 728.301 240.52 730.162 241.896C729.524 243.287 728.651 244.628 727.883 245.956C721.557 241.827 714.709 238.307 708 234.844L711.162 230.284C713.756 231.398 716.274 232.691 718.807 233.934C730.809 214.87 741.311 194.587 752.513 175.017C751.477 174.08 750.918 173.346 750.242 172.156C750.401 170.41 751.08 169.726 752.045 168.288Z"/>
	<path d="M850.436 237.334C853.815 239.647 856.739 243.497 859.477 246.57C860.818 248.077 863.228 250.217 863.105 252.31C861.795 253.385 859.427 253.11 857.686 253.667C854.827 256.053 834.273 309.318 830.528 318.088L834.113 322.735L830.701 326.285C827.157 322.724 821.256 318.328 819.459 313.601C818.973 312.322 818.922 311.685 819.444 310.442L820.645 310.199C822.829 310.83 824.101 312.17 825.729 313.667Q829.248 305.097 833.043 296.645L823.661 287.766C818.799 282.957 813.933 278.195 808.826 273.646C803.147 276.758 797.263 279.554 791.447 282.399L795.117 286.648L791.252 290.417C786.468 285.992 781.932 281.238 776.758 277.263C777.827 275.519 778.968 274.003 780.313 272.464C782.408 274.138 784.404 275.929 786.419 277.698C799.761 271.024 812.759 263.645 825.865 256.522C833.323 252.468 841.127 248.851 848.377 244.454C848.507 243.336 847.862 242.057 847.505 240.989C847.813 239.523 848.858 238.798 849.908 237.819L850.436 237.334ZM850.865 250.514C838.71 256.863 826.622 263.897 814.916 271.045L824.533 280.821L834.535 290.732C837.44 284.292 850.378 255.354 850.865 250.514Z"/>
	<path d="M684.029 142.33C688.015 142.839 698.502 145.645 701.161 148.465C701.965 149.318 701.849 149.534 701.761 150.624C700.64 152.013 698.905 152.236 697.259 152.694C696.315 176.312 697.14 200.181 696.975 223.838L703.364 227.223L701.675 232.423C696.776 230.941 687.285 228.482 684.723 223.709C684.708 222.286 684.719 222.09 685.453 220.881C686.512 220.41 687.105 220.5 688.201 220.715C689.137 220.899 689.542 220.974 690.523 220.892C691.943 214.379 690.921 206.181 690.813 199.506C685.663 198.07 680.554 196.309 675.452 194.704Q666.917 191.509 658.321 188.48C653.907 193.643 649.829 200.085 644.773 204.565C646.818 205.374 649.809 206.151 651.203 207.9C652.037 208.946 652.277 209.736 652.033 211.009C651.516 211.307 651.511 211.353 650.831 211.503C646.908 212.369 638.571 208.385 635.062 206.539C635.672 202.924 642.778 198.497 645.174 195.425Q656.237 181.426 667.515 167.6C672.449 161.589 678.665 155.533 682.251 148.593C683.207 146.744 683.52 144.344 684.029 142.33ZM689.866 149.947C680.318 161.172 671.664 173.18 662.386 184.637C665.527 186.006 668.654 187.362 671.875 188.536Q681.363 192.048 691.008 195.106Q691.38 181.299 691.49 167.487C691.529 162.837 691.932 157.78 691.294 153.182C691.114 151.889 690.738 150.934 689.866 149.947Z"/>
	<path d="M573.267 114.73C586.994 117.369 614.006 119.048 624.276 127.865C628.772 131.725 631.094 137.236 631.446 143.086C631.8 148.962 630.418 154.553 626.395 158.983C621.966 163.859 615.469 166.33 608.988 166.694C611.645 176.702 613.116 187.082 615.585 197.162L622.915 199.106C622.418 200.916 622.231 202.846 621.955 204.701C617.652 203.952 613.385 203.216 609.16 202.089C608.409 195.35 607.173 188.628 606.097 181.932Q604.86 174.146 603.364 166.405C595.42 165.071 587.503 163.506 579.581 162.043C577.501 171.242 576.791 180.793 574.461 189.916L576.777 190.331C577.249 190.412 577.723 190.48 578.192 190.573C580.539 191.04 581.549 192.067 582.867 193.979L582.205 195.342C579.678 196.628 566.32 194.454 563.295 193.45C561.495 192.852 560.448 192.186 559.605 190.475L560.046 189.638C563.121 187.797 565.44 188.577 568.733 189.234C570.377 182.035 571.354 174.595 572.522 167.302Q576.204 144.661 579.008 121.895L572.18 120.064L573.267 114.73ZM585.392 122.872C583.69 133.97 582.42 145.128 580.975 156.261C592.323 159.366 606.999 163.914 618.128 158.163C622.12 155.028 624.955 151.673 625.47 146.408C625.904 141.974 624.89 137.588 621.958 134.152C614.429 125.328 596.293 124.416 585.392 122.872Z"/>
	<path d="M347.26 779.186C350.333 778.813 355.43 780.146 357.859 782.089C360.466 784.174 361.59 787.373 361.755 790.626C362.115 797.734 358.395 804.319 353.752 809.428C339.778 824.802 320.384 829.07 300.509 830.058Q294.106 844.371 285.527 857.496C294.021 864.5 302.525 871.299 310.65 878.741C324.794 891.697 338.504 909.809 356.64 916.979C363.331 919.625 370.641 920.581 377.688 918.839C379.82 918.312 382.256 917.214 384.424 917.076C385.486 917.009 385.931 917.351 386.828 917.845C387.193 919.202 387.15 919.317 386.681 920.65C383.17 924.108 376.096 924.393 371.391 924.527C353.245 925.046 340.871 915.365 328.187 903.411C313.655 888.925 299.185 874.689 282.817 862.252C279.284 866.258 275.46 870.207 270.355 872.148C265.983 873.811 261.158 873.821 256.931 871.717C253.057 869.79 249.911 866.182 248.599 862.051C247.458 858.461 247.723 854.412 249.543 851.085C250.976 848.465 253.417 846.788 256.293 846.102C265.303 843.952 273.65 849.638 280.866 854.209C286.045 846.481 290.096 838.215 294.248 829.911C291.685 829.258 289.085 828.639 286.566 827.832C280.768 825.972 275.787 822.45 273.084 816.876C271.756 814.136 270.806 809.812 271.922 806.85C272.323 805.787 272.303 805.829 273.407 805.392C278.852 807.55 277.128 813.416 279.812 817.389C283.099 822.252 291.801 823.849 297.17 824.94C300.818 817.2 304.817 809.631 309.977 802.776C319.315 790.367 331.718 781.431 347.26 779.186ZM343.953 784.529C324.312 791.861 312.507 806.062 303.502 824.615C307.892 824.503 312.043 823.898 316.374 823.242C331.249 819.464 345.803 812.973 354.005 799.223C355.712 796.362 357.2 793.053 356.191 789.685Q356.09 789.341 355.954 789.01Q355.819 788.678 355.65 788.362Q355.482 788.046 355.282 787.749Q355.082 787.452 354.853 787.176Q354.624 786.901 354.369 786.65Q354.113 786.4 353.833 786.176Q353.553 785.953 353.252 785.759Q352.95 785.565 352.631 785.403C349.998 784.048 346.801 784.267 343.953 784.529ZM258.608 850.973C256.268 852.57 254.201 854.134 253.595 857.06C253.159 859.172 253.723 861.313 255.01 863.027C257.019 865.703 260.383 867.307 263.681 867.566C266.294 867.771 268.561 866.919 270.846 865.751C273.439 863.629 275.618 861.455 277.603 858.742C271.746 855.015 265.871 850.82 258.608 850.973Z"/>
	<path d="M438.305 117.722C438.824 117.659 439.205 117.599 439.713 117.582C445.715 117.387 452.262 119.253 456.69 123.397C460.712 127.161 462.466 132.311 462.529 137.738C462.605 144.248 460.237 149.206 455.745 153.781C458.238 154.657 460.921 155.479 463.135 156.945Q463.55 157.214 463.95 157.504Q464.349 157.794 464.734 158.105Q465.118 158.415 465.485 158.746Q465.852 159.077 466.201 159.426Q466.55 159.776 466.881 160.143Q467.211 160.511 467.521 160.895Q467.832 161.28 468.121 161.68Q468.411 162.08 468.679 162.495Q468.947 162.91 469.193 163.339Q469.439 163.767 469.662 164.208Q469.885 164.649 470.084 165.101Q470.283 165.553 470.459 166.015Q470.634 166.477 470.784 166.948Q470.935 167.418 471.061 167.896Q471.186 168.374 471.286 168.858Q471.386 169.342 471.461 169.83C472.334 175.227 470.901 180.45 467.551 184.75C459.792 194.709 445.973 196.492 434.321 198.178L417.094 201.024C416.418 199.424 415.906 197.724 415.335 196.082L421.096 194.208C416.415 172.404 414.895 150.012 409.775 128.252C407.63 128.758 405.123 129.712 402.958 129.105C401.65 127.708 401.646 126.408 401.236 124.562C412.952 121.124 426.13 118.633 438.305 117.722ZM443.902 159.688C436.72 160.747 429.622 162.218 422.508 163.651C424.856 173.004 425.73 183.409 426.935 192.992C432.186 192.106 437.469 191.056 442.75 190.388C450.522 188.675 459.033 186.718 463.707 179.553C465.534 176.751 466.338 173.399 465.658 170.095C464.969 166.744 462.773 164.017 459.897 162.246C455.157 159.327 449.287 159.018 443.902 159.688ZM439.819 123.245C431.898 124.352 423.83 125.335 416.051 127.242C418.499 136.995 420.378 147.187 421.393 157.192Q426.444 156.334 431.52 155.64C439.428 154.836 448.048 153.478 453.398 146.909C455.873 143.871 457.297 139.893 456.794 135.959C456.343 132.425 454.317 129.434 451.495 127.323C448.003 124.712 444.122 123.516 439.819 123.245Z"/>
	<path d="M267.681 180.576C272.723 180.022 277.836 180.294 282.73 181.661Q283.693 181.933 284.641 182.252Q285.589 182.57 286.52 182.936Q287.451 183.301 288.363 183.712Q289.275 184.123 290.166 184.579Q291.056 185.035 291.923 185.534Q292.79 186.033 293.631 186.574Q294.472 187.116 295.285 187.698Q296.099 188.28 296.882 188.902Q297.666 189.524 298.417 190.184Q299.169 190.844 299.887 191.54Q300.606 192.236 301.288 192.967Q301.971 193.698 302.617 194.462Q303.263 195.226 303.87 196.021Q304.478 196.815 305.045 197.639Q305.612 198.463 306.138 199.314Q306.664 200.165 307.147 201.041C311.897 209.484 313.911 219.571 311.164 229.003C306.086 246.434 285.362 254.43 270.703 262.372C270.43 262.524 270.168 262.697 269.884 262.828C268.634 263.407 267.795 263.514 266.547 263.058L266.195 261.945C266.664 259.013 267.326 258.006 269.577 256.104C265.85 248.508 261.443 241.221 257.318 233.833C251.209 222.891 245.203 211.862 238.581 201.22L235.018 204.009L232.195 198.669C242.396 190.274 254.805 183.595 267.681 180.576ZM270.266 186.599C260.663 188.641 253.093 192.984 244.921 198.339C252.75 210.526 259.109 223.963 266.263 236.591C269.264 241.888 272.184 247.346 275.96 252.14L280.28 249.879C290.076 244.786 300.931 239.918 304.729 228.588C307.327 220.839 305.826 212.642 302.164 205.533C297.954 197.361 290.544 190.438 281.711 187.604C277.842 186.362 274.265 186.145 270.266 186.599Z"/>
	<path d="M367.452 838.615C369.192 838.557 370.912 838.504 372.628 838.862C376.533 839.676 380.647 842.072 382.727 845.559C384.025 847.734 384.535 850.548 383.763 852.995C383.438 854.023 381.642 854.646 380.708 855.169L382.946 855.693C383.814 856.575 384.009 856.673 383.714 858.012C383.305 859.874 381.778 862.16 380.938 863.937C378.695 868.683 374.242 877.421 374.572 882.521C374.711 884.675 375.641 887.031 377.219 888.499C378.816 889.196 379.965 889.166 381.56 888.5C389.285 885.279 398.615 869.88 401.77 862.314C403.052 859.24 403.39 855.78 404.777 852.787C405.428 851.385 406.589 849.871 408.15 849.476C408.9 849.286 409.117 849.616 409.738 849.967C411.224 855.421 405.084 875.844 403.116 882.192C406.098 876.94 409.107 871.689 412.533 866.711C416.177 861.415 421.776 853.774 428.558 852.739C431.58 852.277 433.559 853.535 435.944 855.219C440.879 864.656 435.891 875.535 433.097 884.921C432.459 887.064 431.469 889.47 431.421 891.706C431.377 893.779 431.541 895.968 433.206 897.399C433.967 898.053 435.019 898.236 436.006 898.12C447.909 896.723 455.969 869.464 463.39 860.852C466.753 856.948 471.527 853.333 476.873 853.121C482.442 852.9 486.277 855.949 490.123 859.503C490.612 859.145 491.278 858.574 491.849 858.319C493.07 857.772 493.434 857.874 494.657 858.196C498.651 863.72 484.317 888.435 490.454 899.862C491.203 901.255 492.326 902.485 493.965 902.752C502.733 904.179 507.938 880.341 512.97 876.609C514.176 877.128 513.884 877.013 514.331 878.112C514.314 878.247 514.298 878.383 514.279 878.518L514.176 879.191C513.166 886.194 509.108 893.904 504.796 899.449C501.945 903.114 497.809 907.058 492.949 907.455C490.905 907.622 488.916 907.135 487.383 905.725C483.359 902.025 483.565 894.423 483.516 889.383Q482.255 891.802 480.836 894.132C477.702 899.264 473.187 904.558 467.023 905.855C464.171 906.456 461.212 905.986 458.842 904.239C453.921 900.612 453.137 893.962 452.229 888.391C449.391 892.87 446.353 897.426 441.916 900.48C438.913 902.547 435.362 903.698 431.716 902.972C429.406 902.512 427.327 901.29 426.027 899.295C420.542 890.873 430.448 874.234 432.432 865.499C433.04 862.82 433.361 860.681 431.856 858.283C430.848 857.628 430.442 857.28 429.162 857.523C422.516 858.784 410.84 877.069 407.72 882.825C405.518 886.888 403.256 893.341 400.213 896.687C399.333 897.655 398.742 898.108 397.448 898.242L396.666 897.201C395.587 889.161 398.941 879.401 400.787 871.635C397.517 878.233 393.071 885.504 387.454 890.371C384.865 892.615 381.544 894.54 377.994 894.223C375.368 893.988 372.651 892.68 371.017 890.581C368.283 887.068 368.446 882.22 368.894 878.035C365.129 882.26 361.25 886.826 355.698 888.691C352.79 889.668 349.677 889.616 346.941 888.139C343.475 886.269 341.262 882.537 340.243 878.835C338.191 871.383 340.561 863.006 344.288 856.453C349.509 847.275 357.327 841.353 367.452 838.615ZM368.495 843.508C358.402 847.584 351.662 854.723 347.414 864.727C345.551 869.112 343.752 875.431 345.686 880.006C346.649 882.286 348.555 883.236 350.772 883.978C352.047 884.405 353.04 884.419 354.372 884.24C364.711 878.977 373.321 866.977 376.83 856.073C377.63 853.589 378.573 849.673 377.105 847.238C375.943 845.311 373.927 844.223 371.763 843.784C370.683 843.565 369.596 843.443 368.495 843.508ZM476.499 858.014C469.07 861.151 465.365 867.006 462.396 874.219C459.601 881.01 456.78 890.368 459.96 897.441C460.663 899.005 461.835 900.198 463.478 900.746C465.572 901.445 467.294 901.515 469.349 900.68C479.856 893.207 484.413 879.474 487.919 867.626C486.695 864.163 485.443 860.633 481.937 858.869C480.168 857.979 478.434 857.91 476.499 858.014Z"/>
	<path d="M351.015 138.59C359.008 137.907 366.739 139.373 373.587 143.654C383.571 149.896 389.898 160.669 392.401 171.994C394.651 182.169 393.868 193.562 388.108 202.49C382.159 211.711 373.303 215.052 363.053 217.308C354.802 218.354 347.169 217.707 339.905 213.374C330.739 207.906 325.008 198.433 322.439 188.252C319.643 177.174 320.429 164.044 326.416 154.1C332.262 144.391 340.447 141.249 351.015 138.59ZM350.779 144.544C342.699 146.736 336.275 149.557 331.832 157.152C326.447 166.359 326.025 177.811 328.935 187.889C331.349 196.252 336.467 204.108 344.179 208.447Q344.698 208.739 345.229 209.007Q345.761 209.275 346.305 209.518Q346.849 209.761 347.403 209.978Q347.957 210.195 348.521 210.387Q349.085 210.578 349.657 210.743Q350.229 210.908 350.809 211.046Q351.388 211.184 351.973 211.295Q352.558 211.406 353.147 211.49Q353.737 211.573 354.33 211.629Q354.922 211.686 355.517 211.714Q356.112 211.743 356.707 211.744Q357.303 211.744 357.898 211.718Q358.492 211.691 359.085 211.636Q359.678 211.582 360.268 211.5Q360.858 211.418 361.443 211.309Q362.028 211.199 362.608 211.063C371.203 208.832 379.148 205.56 383.778 197.397C388.246 189.518 387.852 178.792 385.364 170.324C382.703 161.271 376.896 152.541 368.534 147.865C362.761 144.637 357.24 144.206 350.779 144.544Z"/>
	<path d="M575.893 800.594Q576.414 800.558 576.936 800.544C579.13 800.494 581.204 801.041 582.778 802.651C585.534 805.469 585.841 810.723 585.757 814.472C585.311 834.277 569.57 855.787 555.796 868.803C555.03 876.875 554.696 889.705 560.157 896.342C561.623 898.124 563.792 899.544 566.148 899.666C568.172 899.772 570.22 898.752 571.906 897.733C588.45 887.738 582.513 858.549 597.191 846.462C600.106 844.061 604.347 842.254 608.185 842.695C612.518 843.193 615.156 846.566 617.651 849.768C617.957 847.545 618.325 844.651 620.211 843.182L621.216 843.475C624.982 849.681 622.346 862.658 622.29 870C622.249 875.452 622.494 884.135 626.764 888.063C627.445 888.69 628.423 889.164 629.361 889.052C632.062 888.732 633.97 885.507 635.212 883.365C640.486 874.264 642.287 864.182 641.643 853.798C641.41 850.045 640.803 846.017 640.999 842.269C641.089 840.55 641.584 838.678 642.724 837.363L643.618 837.496C647.988 842.978 647.951 861.175 649.661 869.026C650.301 863.258 650.863 857.382 651.99 851.685C653.371 844.702 656.095 835.155 662.485 831.094C664.587 829.758 667.576 828.901 670.052 829.527C680.35 832.131 676.585 860.965 682.522 869.893C683.378 871.18 684.509 872.136 686.12 872.247C688.07 872.382 690.287 871.339 691.61 869.938C698.853 862.271 696.233 845.71 695.96 836.065C695.767 829.25 696.585 819.645 701.664 814.565C706.009 810.218 710.912 811.972 716.256 812.374C718.311 812.529 720.429 812.222 722.502 812.234C724.851 814.324 729.764 836.356 732.322 841.769C733.732 844.221 735.588 846.761 738.104 848.196C739.047 848.734 740.124 848.964 741.154 848.528C747.322 845.917 745.705 828.953 748.019 823.528C748.543 822.299 748.768 822.26 749.936 821.88L750.809 822.555C752.638 827.212 751.32 834.14 750.415 838.993C749.561 843.568 747.732 849.083 743.638 851.723C741.922 852.829 739.855 853.3 737.845 852.849C732.929 851.747 729.831 846.629 727.478 842.58C727.488 844.638 727.512 846.706 727.415 848.762C727.193 853.51 725.66 858.774 721.924 861.959Q721.508 862.316 721.057 862.629Q720.606 862.941 720.125 863.205Q719.644 863.47 719.138 863.683Q718.633 863.896 718.108 864.056Q717.583 864.216 717.045 864.32Q716.506 864.425 715.959 864.474Q715.413 864.522 714.864 864.514Q714.316 864.506 713.771 864.441C708.054 863.766 704.178 859.242 700.733 855.092C700.344 861.758 699.124 870.119 693.758 874.696C691.445 876.669 688.512 877.614 685.48 877.232C666.355 874.824 675.781 840.314 670.138 835.022C669.353 834.285 667.847 833.835 666.785 833.995C659.085 835.156 653.96 863.091 653.283 869.318C652.663 875.03 653.121 880.834 652.506 886.51C652.341 888.024 652.276 889.014 651.261 890.134C650.229 890.117 649.709 890.161 648.847 889.471C645.325 886.652 644.673 876.267 644.378 871.915C642.867 876.715 641.32 881.431 638.832 885.829C636.885 889.27 634.017 893.206 629.956 894.177C628.266 894.581 626.49 894.36 625.008 893.432C620.57 890.655 619.368 883.44 618.184 878.739C617.339 882.3 616.357 886.03 614.767 889.335C612.766 893.491 609.517 897.724 604.958 899.203C602.009 900.159 598.998 899.944 596.29 898.397C590.808 895.265 588.874 888.814 587.285 883.138C584.449 890.033 581.149 898.1 574.54 902.206C571.109 904.337 566.774 905.091 562.835 904.145C558.781 903.172 555.771 900.333 553.72 896.798C544.542 880.972 550.252 851.238 555.056 834.458C558.651 821.9 563.837 807.288 575.893 800.594ZM604.779 847.44C598.43 851.242 595.711 857.482 594.007 864.431C592.108 872.171 590.802 882.867 595.32 889.949C596.692 892.098 599.183 894.374 601.758 894.904C602.546 895.066 603.375 895.091 604.177 895.116C610.319 891.643 612.256 884.447 614.006 878.039C616.12 870.292 618.248 860.282 614.176 852.837C612.954 850.603 610.824 848.51 608.34 847.751C607.223 847.409 605.94 847.432 604.779 847.44ZM707.243 816.387C701.955 823.146 701.593 831.066 702.567 839.331C703.291 845.481 705.306 853.866 710.47 857.764C712.437 859.249 714.63 860.172 717.097 859.718C717.459 859.651 717.817 859.568 718.174 859.484C722.297 855.385 723.596 851.198 723.576 845.406C723.547 836.895 721.386 827.749 718.827 819.644C714.57 817.342 712.099 816.416 707.243 816.387ZM575.707 805.303C562.76 817.826 557.329 844.355 556.722 862.068C557.851 860.949 559.004 859.853 560.054 858.66C568.23 848.188 582.584 825.335 581.224 811.499C581.038 809.601 580.276 807.386 578.61 806.273C577.658 805.636 576.826 805.41 575.707 805.303Z"/>
	<path d="M203.91 488.057C208.524 487.636 212.578 487.867 216.865 489.915C222.708 492.707 226.332 498.085 228.49 504.022C233.761 518.525 228.318 535.569 221.396 548.539C217.818 555.243 213.496 561.639 210.338 568.553L210.023 569.253C229.197 605.91 237.763 653.247 225.966 693.498C222.107 706.664 215.229 715.253 216.992 729.705C219.556 750.717 229.395 771.836 240.786 789.577C243.96 794.52 249.862 800.815 251.408 806.396C251.753 807.64 251.704 808.145 251.05 809.226L249.69 809.466C248.863 809.18 248.19 808.906 247.498 808.354C243.531 805.191 240.527 799.541 237.911 795.229C228.635 779.937 219.79 763.482 215.385 746.02C213.012 736.614 212.371 727.114 211.363 717.514L210.512 717.787C200.458 720.936 190.272 721.248 180.778 716.088C175.105 713.004 170.405 708.082 168.629 701.763C167.271 696.932 167.668 691.242 170.174 686.837C172.137 683.386 175.362 681.222 179.163 680.245C185.117 678.716 192.36 680.227 197.536 683.431C207.347 689.504 209.36 700.331 211.781 710.655Q212.071 706.601 212.177 702.538Q212.283 698.474 212.207 694.411Q212.13 690.347 211.87 686.29Q211.609 682.234 211.167 678.194Q210.724 674.154 210.1 670.137Q209.475 666.121 208.67 662.137Q207.865 658.153 206.881 654.209Q205.898 650.265 204.737 646.37C178.523 582.595 122.168 623.508 92.5802 592.923C86.6993 586.844 83.0946 578.011 83.4054 569.512C83.6762 562.106 86.5526 555.206 92.0719 550.163C99.1189 543.723 109.079 541.209 118.449 541.607C139.23 542.489 157.849 555.392 171.394 570.355C201.634 603.762 219.134 660.391 216.89 705.125C232.22 663.699 227.875 622.633 210.58 582.756C204.482 568.698 196.77 555.264 191.479 540.884C187.068 528.895 182.196 512.618 188.162 500.294C191.404 493.598 197.137 490.297 203.91 488.057ZM115.984 546.701C107.46 547.602 99.3939 549.199 93.6161 556.233C89.5689 561.16 87.6932 567.17 88.4619 573.522C89.3821 581.126 93.38 587.81 99.4883 592.381C118.903 606.911 145.702 598.715 167.645 604.526C172.626 605.846 177.391 608.221 181.819 610.823C187.879 614.358 192.546 618.467 197.214 623.686C183.331 593.821 166.924 562.066 133.921 549.989C128.749 548.097 121.512 545.891 115.984 546.701ZM207.92 492.621C202.378 493.74 197.506 495.655 194.173 500.51C189.368 507.51 190.026 516.751 191.688 524.659C193.688 534.174 201.238 554.102 206.706 561.877L207.57 562.23L207.945 562.005C216.923 546.632 230.128 526.865 225.135 508.196C223.685 502.774 220.219 497.22 215.171 494.495C212.964 493.304 210.419 492.72 207.92 492.621ZM181.157 685.039C177.557 686.828 174.243 688.98 172.822 692.984C171.741 696.029 172.461 699.146 173.886 701.945C176.934 707.933 182.687 712.041 189.049 713.898C192.821 714.999 196.49 715.137 200.391 715.04C203.024 714.568 205.647 714.137 208.204 713.333C206.015 704.19 203.318 692.829 194.573 687.701C190.391 685.249 185.89 684.828 181.157 685.039Z"/>
	<path d="M817.435 484.666C819.665 484.366 822.142 484.566 824.293 485.24C829.05 486.731 832.279 490.274 834.364 494.681C837.511 501.33 837.8 508.905 837.364 516.126C835.516 546.763 819.726 569.165 809.721 596.788C796.59 633.041 791.228 667.555 808.218 703.904C804.979 670.777 815.02 629.848 831.121 600.802C843.884 577.777 870.03 551.25 895.771 544.082C906.05 541.22 917.429 541.21 926.881 546.63C933.641 550.506 938.238 556.383 940.178 563.995Q940.361 564.724 940.508 565.462Q940.656 566.199 940.767 566.943Q940.878 567.687 940.953 568.435Q941.029 569.183 941.067 569.934Q941.106 570.685 941.109 571.437Q941.111 572.189 941.077 572.941Q941.042 573.692 940.972 574.44Q940.901 575.189 940.794 575.934Q940.688 576.678 940.545 577.416Q940.402 578.155 940.224 578.885Q940.045 579.616 939.832 580.337Q939.618 581.058 939.37 581.768Q939.121 582.477 938.839 583.174Q938.556 583.871 938.24 584.554Q937.924 585.236 937.575 585.902Q937.227 586.568 936.846 587.217C921.966 612.214 883.601 604.35 859.555 610.688C843.187 615.002 831.466 625.054 823.051 639.514C813.363 658.292 812.58 679.102 812.47 699.767L812.852 698.902C816.096 691.458 821.144 684.971 828.717 681.55C833.737 679.282 840.102 678.46 845.293 680.642C848.98 682.192 851.746 685.165 853.242 688.855C855.302 693.936 854.903 699.869 852.8 704.867C850.107 711.267 844.708 715.882 838.307 718.359C830.4 721.418 821.046 720.72 813.398 717.225C813.007 725.011 812.539 732.809 811.02 740.47Q808.722 751.739 804.587 762.471C800.698 772.562 784.791 806.382 776.584 811.207C775.888 811.616 775.732 811.375 775.029 811.167C774.56 809.581 774.752 808.54 775.424 807.024C778.016 801.175 782.905 795.324 786.314 789.793C791.503 781.374 795.948 772.034 799.715 762.884C805.153 749.674 811.521 730.549 808.195 716.099C806.753 709.833 803.36 703.83 800.912 697.895C781.974 651.99 799.987 608.566 817.577 566.058C805.542 554.882 796.552 540.402 793.779 524.059C792.175 514.599 792.249 502.786 798.16 494.735C802.941 488.222 809.866 485.945 817.435 484.666ZM908.575 547.216C885.442 548.676 866.601 563.747 851.797 580.517C839.215 594.769 829.896 611.812 823.462 629.637C827.984 624.187 832.958 618.852 838.8 614.777C845.356 610.77 851.75 607.403 859.291 605.696C881.607 600.643 929.237 606.382 936.104 576.759Q936.232 576.187 936.33 575.609Q936.428 575.031 936.497 574.449Q936.565 573.866 936.604 573.281Q936.643 572.697 936.652 572.11Q936.661 571.524 936.64 570.938Q936.619 570.352 936.569 569.768Q936.518 569.184 936.438 568.604Q936.357 568.023 936.247 567.447Q936.137 566.871 935.998 566.302Q935.859 565.732 935.691 565.171Q935.524 564.609 935.327 564.057Q935.131 563.504 934.907 562.962Q934.683 562.421 934.431 561.891Q934.18 561.362 933.901 560.846Q933.623 560.329 933.319 559.828Q933.015 559.327 932.686 558.842Q932.313 558.292 931.913 557.763Q931.513 557.233 931.087 556.724Q930.661 556.215 930.209 555.728Q929.758 555.242 929.282 554.778Q928.806 554.315 928.308 553.877Q927.81 553.438 927.29 553.025Q926.77 552.613 926.23 552.227Q925.689 551.841 925.13 551.483Q924.571 551.125 923.995 550.795Q923.418 550.466 922.826 550.166Q922.234 549.867 921.627 549.597Q921.02 549.328 920.401 549.09Q919.781 548.851 919.15 548.645Q918.519 548.438 917.879 548.264Q917.238 548.089 916.589 547.948Q915.941 547.806 915.286 547.697C913.191 547.34 910.695 547.009 908.575 547.216ZM815.936 489.553C809.611 491.454 804.061 494.166 800.748 500.234C795.847 509.21 797.293 521.482 800.239 530.849C803.645 541.68 809.982 550.63 817.357 559.11L819.558 561.167C820.206 561.045 819.984 561.208 820.342 560.691C822.841 557.086 824.179 552.56 825.587 548.433C830.42 534.263 835.133 517.774 832.279 502.763C831.439 498.347 829.638 493.845 825.755 491.271C822.639 489.205 819.525 489.333 815.936 489.553ZM836.15 684.138C827.48 686.561 821.066 692.823 816.754 700.561C815.299 703.171 813.374 707.259 814.505 710.308C815.222 712.24 816.583 713.45 818.462 714.246C821.062 715.347 824.9 715.558 827.718 715.438C835.238 714.134 842.364 711.881 846.866 705.197C849.246 701.663 850.59 696.993 849.735 692.749C849.188 690.034 847.656 687.792 845.321 686.302C842.52 684.515 839.421 683.962 836.15 684.138Z"/>
	<path d="M631.56 360.684C640.235 360.49 659.097 358.75 666.313 363.925C669.09 365.917 670.636 369.188 671.172 372.491C671.836 376.578 671.249 381.064 668.742 384.453C665.411 388.957 660.602 389.496 655.485 390.261C654.612 402.857 655.216 415.833 655.032 428.486C665.472 432.813 673.671 438.694 682.265 445.896C684.674 441.637 687.123 436.463 691.12 433.494C696.02 429.854 703.755 429.859 709.582 430.746C712.7 431.22 715.731 432.46 717.581 435.136C718.977 437.155 718.859 441.7 718.932 444.103C719.237 454.138 718.324 464.247 718.364 474.3Q718.449 492.709 718.342 511.118C718.314 518.346 718.834 526.058 717.593 533.185C717.021 533.868 716.448 534.517 715.796 535.126C712.939 537.791 709.435 539.116 705.513 538.874C696.467 538.315 689.536 531.668 683.93 525.23C684.004 541.66 687.224 558.694 689.224 575.027C691.456 593.258 692.679 612.618 696.986 630.433C698.053 631.224 699.106 632.039 700.083 632.94C706.641 638.991 737.814 676.224 740.768 683.19C742.399 687.034 742.613 692.112 742.743 696.24C742.927 702.123 742.718 708.919 738.489 713.453C730.809 716.091 702.05 714.537 692.154 714.529L629.21 714.527L355.75 714.869Q334.454 714.793 313.158 714.995C305.024 715.059 295.975 715.953 287.992 714.632C285.592 714.235 283.595 713.566 281.831 711.821C277.998 708.031 278.283 701.433 278.349 696.451C278.418 691.323 278.916 686.086 280.863 681.288C284.57 672.148 303.961 645.489 311.066 638.805C312.571 637.39 314.277 635.891 316.243 635.16C326.272 631.432 345.987 633.343 356.821 633.526L356.519 626.673C354.553 625.767 352.623 624.866 351.056 623.333C349.595 621.903 348.671 620.134 348.159 618.166C347.145 614.265 347.726 609.872 347.297 605.854C346.657 599.869 344.941 594.04 344.802 587.996C336.913 588.11 328.342 588.399 322.321 582.334C319.183 579.173 317.325 574.678 316.709 570.314C315.552 562.134 316 553.473 315.972 545.213Q315.864 529.229 315.449 513.251Q314.589 487.584 313.337 461.933C312.902 452.938 312.199 443.892 312.123 434.889C312.033 424.148 314.857 414.669 322.564 406.926C329.872 399.585 340.266 395.804 350.569 395.792C350.469 392.788 349.502 385.466 351.455 383.131C352.7 381.642 355.587 380.997 357.392 380.725C361.328 380.133 366.163 380.074 369.458 382.588C371.437 385.739 370.633 391.673 370.573 395.374C409.496 396.878 408.22 429.991 443.051 433.433C463.176 435.421 483.555 431.968 503.387 428.88C545.931 422.256 588.526 413.777 631.492 421.297L631.445 389.948C628.935 389.499 626.548 389.041 624.446 387.506C621.192 385.129 619.246 381.451 618.682 377.507C618.089 373.355 618.923 368.829 621.635 365.537C624.228 362.388 627.594 361.072 631.56 360.684ZM581.009 632.775C597.881 634.489 614.677 636.579 631.62 637.508C632.357 626.608 632.003 615.359 631.891 604.437C628.821 605.465 625.922 606.023 622.681 605.789C620.869 605.658 618.884 604.956 617.815 603.396C617.012 602.224 616.853 600.787 617.11 599.423C617.424 597.754 618.546 595.797 620.143 595.048C625.286 592.634 626.993 601.209 630.979 602.508L631.753 601.803C633.051 597.877 632.826 591.247 631.862 587.284C628.647 584.325 623.626 588.693 619.746 587.504C618.695 587.182 617.956 586.387 617.409 585.464C616.39 583.745 615.777 580.98 616.489 579.046C616.901 577.925 617.508 577.017 618.696 576.624C622.685 575.304 625.89 580.278 628.976 581.84C629.939 582.327 630.109 582.22 631.063 581.894C632.602 579.517 632.718 574.887 632.229 572.114C632.019 570.921 631.549 569.719 630.441 569.104C628.056 567.781 624.669 569.036 622.169 569.605C620.845 568.75 619.418 567.898 618.23 566.858C616.79 565.598 615.458 563.063 615.583 561.104C615.693 559.389 616.892 557.394 618.291 556.444C622.909 553.309 626.939 565.059 630.606 565.781L631.38 565.046C632.835 560.355 632.414 554.52 632.396 549.642C625.16 548.913 618.364 546.957 612.291 542.858C604.461 537.572 599.271 529.787 597.476 520.499Q597.297 519.547 597.165 518.588Q597.033 517.629 596.948 516.665Q596.863 515.701 596.824 514.733Q596.786 513.766 596.795 512.798Q596.804 511.83 596.86 510.863Q596.916 509.896 597.019 508.934Q597.121 507.971 597.271 507.015Q597.421 506.058 597.617 505.11Q597.813 504.162 598.054 503.224Q598.296 502.287 598.583 501.362Q598.871 500.438 599.202 499.528Q599.534 498.619 599.91 497.726Q600.286 496.834 600.704 495.961Q601.123 495.088 601.583 494.237Q602.044 493.385 602.545 492.557Q603.047 491.729 603.588 490.926C609.008 483.047 617.104 477.648 626.554 476.042C636.678 474.322 647.878 476.921 656.184 482.966Q656.955 483.518 657.698 484.107Q658.441 484.697 659.153 485.322Q659.865 485.948 660.545 486.609Q661.225 487.27 661.872 487.964Q662.518 488.657 663.129 489.383Q663.739 490.108 664.313 490.863Q664.887 491.618 665.422 492.401Q665.957 493.183 666.453 493.992Q666.948 494.8 667.403 495.632Q667.857 496.464 668.269 497.318Q668.681 498.172 669.051 499.046Q669.42 499.919 669.745 500.81Q670.07 501.701 670.349 502.606Q670.63 503.512 670.864 504.431Q671.098 505.35 671.286 506.279Q671.475 507.208 671.616 508.146C673.119 517.906 670.488 527.257 664.625 535.156C657.011 545.413 647.129 548.418 635.048 550.223C634.886 555.917 635.113 561.441 635.867 567.092C638.606 564.041 641.992 556.815 646.516 556.589C647.822 556.524 648.975 556.772 649.948 557.695C650.886 558.583 651.328 559.849 651.283 561.127C651.223 562.851 650.221 564.438 648.964 565.561C645.166 568.956 640.121 568.56 635.408 568.441C635.215 571.939 634.212 579.832 636.06 582.808C640.813 582.902 641.787 575.359 646.572 575.03C647.68 574.954 648.815 575.61 649.563 576.397C650.907 577.813 651.084 579.445 650.993 581.295C650.161 582.965 649.34 584.558 647.812 585.702C644.606 588.103 639.039 586.245 635.314 585.774C635.085 590.283 634.129 596.992 635.533 601.252C635.886 602.324 636.099 602.191 637.018 602.708C638.524 602.709 638.686 602.515 639.775 603.515L639.277 603.697C640.711 604.717 641.298 604.632 642.881 605.022C643.048 605.064 643.195 605.162 643.353 605.232C640.623 605.378 637.752 605.086 635.015 604.965C634.812 615.852 634.342 626.62 634.535 637.525C652.369 637.746 671.911 635.194 688.654 629.129C687.443 623.949 687.001 618.333 686.298 613.048L682.199 580.847C679.659 560.794 676.086 540.661 674.631 520.513C676.901 518.865 679.015 517.815 681.738 517.094C681.396 496.085 680.261 475.127 679.482 454.137C638.097 414.693 568.57 426.49 517.66 435.028C491.632 439.393 464.336 445.39 437.884 441.14C400.555 435.141 406.125 407.879 374.694 404.183C362.046 402.695 340.553 402.729 330.29 411.279C324.135 416.407 321.06 424.067 320.33 431.878C319.635 439.308 320.471 446.841 320.833 454.276C321.498 467.936 322.347 481.596 322.874 495.261C323.335 507.246 323.914 519.23 323.973 531.224C324.027 542.115 323.497 553.308 324.262 564.155C324.497 567.486 324.775 571.845 327.071 574.438C330.183 577.953 334.366 579.375 338.98 579.504C344.452 579.657 349.984 579.251 355.465 579.226C364.305 579.186 377.851 580.876 386.022 577.647C393.69 574.616 393.965 559.565 395.074 552.546C395.811 547.889 396.691 543.253 397.969 538.711C400.328 530.327 404.15 522.419 410.616 516.43C415.721 511.702 422.291 509.001 428.994 507.444C451.65 502.18 476.471 503.658 499.649 502.649C515.135 501.975 530.797 500.063 546.3 500.634C558.233 501.073 571.758 503.226 580.179 512.574C584.943 517.861 587.72 524.823 588.674 531.825C590.148 542.642 587.981 554.026 586.981 564.823C584.896 587.344 581.856 610.194 581.009 632.775ZM530.066 509.781Q502.945 511.08 475.811 512.045C461.074 512.573 445.213 511.936 430.9 515.76C424.462 517.48 418.182 520.458 413.673 525.49C398.582 542.335 407.188 576.106 390.513 584.961C386.7 586.986 382.513 587.318 378.297 587.656C377.934 596.248 376.023 599.133 374.845 606.528C374.236 610.351 374.769 614.687 373.579 618.347Q373.337 619.1 373 619.816Q372.662 620.532 372.235 621.198Q371.808 621.864 371.298 622.469Q370.788 623.074 370.204 623.608C368.833 624.848 367.218 625.898 365.66 626.89L365.559 633.801L418.25 633.81L515.909 633.749C534.714 633.771 553.622 634.23 572.413 633.629Q575.712 600.678 578.547 567.683C579.434 557.539 581.477 546.758 580.527 536.607C579.947 530.408 578.079 524.087 574.027 519.242C568.59 512.741 560.312 510.039 552.121 509.462C544.877 508.951 537.317 509.372 530.066 509.781ZM690.451 637.045C664.337 645.574 637.159 646.713 609.944 644.44C594.19 643.125 578.935 641.127 563.095 641.099L366.12 641.555Q365.979 646.904 365.941 652.255C376.08 654.434 385.555 655.769 394.476 661.423C376.945 661.523 359.395 660.94 341.85 660.983C333.087 661.005 323.355 660.607 314.741 662.069C322.387 658.183 329.984 654.937 338.424 653.15C338.859 650.278 338.997 646.244 341.869 644.626C343.138 643.911 343.408 644.043 344.728 644.404C346.531 646.234 346.984 647.474 346.983 650.052L346.96 653.044C350.206 652.959 353.57 653.031 356.794 652.666L356.88 642.077C344.3 641.718 331.569 640.902 319.03 642.222C309.978 648.726 296.819 669.22 291.665 679.488L728.801 679.843C724.521 674.03 696.093 637.619 691.185 637.057C690.942 637.03 690.696 637.049 690.451 637.045ZM292.639 687.719C291.199 687.808 288.988 687.662 287.845 688.551C286.048 693.278 286.631 701.478 288.643 706.044L288.841 706.482Q321.09 706.745 353.339 706.677L560.448 706.801C616.905 706.679 673.397 707.527 729.846 706.832C731.142 706.823 732.424 706.792 733.717 706.894L733.786 706.815C734.378 700.48 734.568 694.402 733.918 688.067C726.313 687.311 718.569 687.605 710.933 687.607L676.406 687.624L564.483 687.648L383.16 687.647L324.177 687.647C313.692 687.646 303.114 687.357 292.639 687.719ZM632.46 483.672C623.613 485.13 615.649 487.989 610.173 495.648C605.608 502.033 603.917 510.552 605.465 518.236Q605.61 518.975 605.792 519.705Q605.974 520.436 606.194 521.156Q606.413 521.877 606.668 522.585Q606.923 523.293 607.214 523.988Q607.505 524.682 607.831 525.361Q608.156 526.04 608.516 526.701Q608.876 527.363 609.268 528.005Q609.661 528.647 610.086 529.269Q610.511 529.891 610.967 530.49Q611.422 531.089 611.908 531.665Q612.394 532.24 612.908 532.79Q613.422 533.34 613.963 533.863Q614.505 534.386 615.072 534.882Q615.639 535.377 616.231 535.843Q616.822 536.308 617.437 536.743Q618.051 537.179 618.687 537.582C624.656 541.33 630.739 542.152 637.685 541.964C646.348 540.49 654.218 537.139 659.454 529.683C663.762 523.549 665.331 515.621 664.018 508.27Q663.887 507.539 663.719 506.816Q663.551 506.093 663.348 505.379Q663.144 504.665 662.905 503.962Q662.666 503.259 662.392 502.569Q662.118 501.879 661.81 501.203Q661.502 500.528 661.161 499.869Q660.82 499.209 660.446 498.568Q660.072 497.926 659.667 497.304Q659.262 496.682 658.826 496.081Q658.39 495.48 657.924 494.902Q657.459 494.323 656.965 493.769Q656.472 493.215 655.951 492.685Q655.43 492.156 654.884 491.654Q654.337 491.151 653.766 490.677Q653.195 490.202 652.601 489.757Q652.007 489.311 651.392 488.896C646.129 485.416 638.814 482.929 632.46 483.672ZM700.659 439.09C694.806 441.733 690.343 447.171 688.01 453.143C686.007 458.273 689.087 511.679 689.998 519.366C693.227 523.094 696.07 526.487 700.504 528.81C703.848 529.68 706.674 529.944 710.098 529.454C711.325 515.88 710.553 501.633 710.618 487.994C710.696 471.804 711.486 455.27 710.648 439.134C707.314 439.237 703.986 438.892 700.659 439.09ZM634.315 368.719C631.755 368.876 629.767 368.729 627.926 370.809C626.801 372.08 626.191 373.711 626.341 375.418C626.487 377.071 627.516 378.58 628.804 379.578C633.728 383.394 650.78 381.312 657.545 381.323C659.521 381.099 661.515 381.037 662.7 379.175C663.58 377.793 663.924 375.557 663.505 373.972C663.016 372.12 661.659 370.874 660.003 370.045C654.862 367.471 640.325 368.03 634.315 368.719ZM639.33 390.024L639.38 390.54C640.321 401.247 638.336 412.445 639.772 423.055C641.078 423.596 642.371 424.108 643.713 424.552Q645.496 424.75 647.285 424.893C648.496 421.964 647.678 395.009 647.624 389.864C645.233 389.659 641.576 389.131 639.33 390.024ZM350.391 587.454C350.261 591.386 350.103 595.533 352.92 598.655C354.73 600.661 357.55 601.621 360.202 601.708C362.243 601.775 369.204 601.213 370.536 599.896C371.251 595.774 371.915 591.627 372.764 587.531C365.34 587.396 357.809 587.037 350.391 587.454ZM353.594 609.584C353.202 612.359 353.043 615.265 354.72 617.693C355.976 619.512 358.275 620.476 360.418 620.704C362.403 620.916 364.635 620.583 366.623 620.423C367.429 616.811 367.939 613.234 368.009 609.527C363.214 609.527 358.384 609.4 353.594 609.584ZM364.402 388.456L357.438 388.473C357.425 390.739 357.219 393.191 357.645 395.418L364.596 395.403C364.553 393.277 364.849 390.493 364.402 388.456ZM643.713 424.552C642.371 424.108 641.078 423.596 639.772 423.055C638.336 412.445 640.321 401.247 639.38 390.54L639.33 390.024L638.679 390.502C638.259 393.712 637.758 421.007 638.649 423.016C638.836 423.438 639.174 423.775 639.437 424.154C641.002 424.938 642.052 424.757 643.713 424.552Z"/>
	<path d="M643.713 424.552C642.052 424.757 641.002 424.938 639.437 424.154C639.174 423.775 638.836 423.438 638.649 423.016C637.758 421.007 638.259 393.712 638.679 390.502L639.33 390.024L639.38 390.54C640.321 401.247 638.336 412.445 639.772 423.055C641.078 423.596 642.371 424.108 643.713 424.552Z"/>
	<path d="M632.089 495.124C635.498 494.944 638.777 495.441 641.879 496.918Q642.278 497.107 642.667 497.317Q643.056 497.527 643.434 497.756Q643.812 497.986 644.177 498.234Q644.542 498.483 644.894 498.75Q645.246 499.017 645.584 499.302Q645.922 499.587 646.245 499.889Q646.567 500.191 646.874 500.509Q647.18 500.828 647.47 501.161Q647.76 501.495 648.032 501.843Q648.304 502.191 648.558 502.553Q648.812 502.915 649.047 503.289Q649.281 503.664 649.497 504.05Q649.712 504.436 649.907 504.832Q650.102 505.229 650.276 505.635Q650.45 506.041 650.603 506.456Q650.757 506.87 650.888 507.292C652.49 512.319 652.096 517.92 649.448 522.526C646.57 527.531 642.12 529.887 636.774 531.426C632.694 531.588 628.997 531.054 625.436 528.935Q624.672 528.474 623.957 527.939Q623.241 527.405 622.582 526.804Q621.922 526.202 621.325 525.539Q620.728 524.875 620.198 524.157Q619.669 523.438 619.213 522.671Q618.756 521.904 618.377 521.096Q617.998 520.287 617.7 519.446Q617.402 518.605 617.188 517.738C615.92 512.689 616.694 506.961 619.557 502.577C622.553 497.99 626.892 496.084 632.089 495.124ZM630.69 501.532C626.887 503.5 624.134 505.611 622.894 509.935Q622.736 510.484 622.634 511.046Q622.532 511.609 622.487 512.178Q622.442 512.748 622.454 513.319Q622.466 513.89 622.535 514.457Q622.604 515.024 622.73 515.582Q622.856 516.139 623.036 516.681Q623.217 517.223 623.451 517.745Q623.685 518.266 623.97 518.761Q624.291 519.302 624.667 519.808Q625.042 520.313 625.467 520.777Q625.892 521.241 626.363 521.659Q626.834 522.077 627.346 522.444Q627.857 522.811 628.403 523.124Q628.95 523.436 629.526 523.691Q630.101 523.945 630.7 524.139Q631.299 524.333 631.915 524.464C633.794 524.876 635.642 524.617 637.525 524.386C641.199 522.549 644.294 520.457 645.629 516.353C646.553 513.511 646.172 510.257 644.667 507.681C642.962 504.76 640.01 502.607 636.737 501.766C634.832 501.277 632.643 501.462 630.69 501.532Z"/>
	<path d="M637.018 602.708C637.275 602.539 637.535 602.376 637.788 602.202C640.788 600.135 643.563 593.841 647.733 594.133C648.916 594.216 650.072 595.146 650.752 596.057C651.469 597.018 651.85 598.201 651.628 599.4C651.269 601.337 649.456 603.348 647.793 604.308C646.442 605.088 644.872 605.132 643.353 605.232C643.195 605.162 643.048 605.064 642.881 605.022C641.298 604.632 640.711 604.717 639.277 603.697L639.775 603.515C638.686 602.515 638.524 602.709 637.018 602.708Z"/>
	<path d="M532.271 457.184L533.267 458.13C535.368 463.625 534.457 475.9 532.736 481.381C530.944 479.048 531.406 474.734 531.422 471.911C527.298 474.602 523.824 479.126 519.607 481.299C518.446 481.897 517.288 482.126 516.041 481.595C512.534 480.102 509.452 473.162 507.551 469.859C505.485 473.265 503.356 477.742 500.288 480.29C499.102 481.275 497.716 481.952 496.13 481.581C491.961 480.606 488.306 473.162 486.129 469.745C484.117 473.095 482.031 477.48 479.005 479.974C477.816 480.955 476.43 481.592 474.853 481.218C470.619 480.212 467.294 472.879 465.179 469.342C462.905 472.782 460.511 477.289 457.508 480.059C456.615 480.883 455.395 481.629 454.133 481.433C450.014 480.79 446.265 473.189 444.129 469.846C441.671 473.294 438.9 478.309 435.608 480.931C434.808 481.568 433.738 482.069 432.706 481.897C428.711 481.233 424.44 472.997 422.289 469.711C420.392 473.045 418.249 477.568 415.288 480.021C414.074 481.027 412.632 481.654 411.023 481.27C406.738 480.246 403.105 473.109 400.78 469.595C397.695 474.418 394.91 479.405 390.017 482.608C385.435 479.217 382.654 474.569 379.501 469.927C375.517 474.861 371.365 479.491 366.747 483.843C362.832 480.046 359.514 475.351 356.081 471.109C351.224 475.914 346.783 480.968 341.602 485.458C339.695 477.448 338.303 469.675 334.843 462.152C334.394 461.17 333.782 459.861 334.153 458.847C334.604 458.93 334.713 458.916 335.164 459.188C340.51 462.415 342.036 474.365 343.14 480.103C347.73 475.959 351.745 471.235 355.867 466.635Q361.379 473.501 367.24 480.072C370.946 475.221 374.687 470.835 379.253 466.769C384.209 469.902 387.194 475.682 390.289 480.517Q391.235 478.481 392.346 476.531Q393.458 474.581 394.728 472.73Q395.998 470.879 397.417 469.14Q398.837 467.401 400.396 465.786C405.139 469.952 408.23 475.168 411.646 480.405C415.486 475.748 418.819 470.374 422.271 465.405C426.292 470.162 429.819 475.316 433.271 480.491C436.421 475.044 440.221 469.944 443.98 464.906C447.844 469.788 451.212 475.22 454.373 480.576C456.397 476.984 458.353 472.949 461.019 469.799C462.204 468.399 463.545 466.959 465.505 466.923C469.113 466.857 471.971 476.302 474.286 478.879C474.924 479.118 475.448 479.518 476.132 479.253C479.348 478.007 483.922 468.298 485.878 465.007C490.071 469.921 493.518 475.247 497.027 480.654C498.783 477.849 503.52 469.041 506.025 467.685C506.708 467.316 507.321 467.021 508.085 467.269C511.537 468.386 515.656 477.109 517.583 480.351C521.602 476.038 525.838 471.312 531.531 469.259C531.624 465.209 531.676 461.2 532.271 457.184Z"/>
</svg>
