<!-- icon666.com - MILLIONS vector ICONS FREE --><svg version="1.1" id="Layer_1" xmlns="http://www.w3.org/2000/svg" xmlns:xlink="http://www.w3.org/1999/xlink" x="0px" y="0px" viewBox="0 0 512 512" style="enable-background:new 0 0 512 512;" xml:space="preserve"><path style="fill:#E6E6E6;" d="M91.799,304.159l-11.305,53.374L69.19,304.159c-1.323-6.244,2.667-12.376,8.91-13.699 c6.244-1.323,12.376,2.667,13.699,8.91C92.141,300.982,92.113,302.643,91.799,304.159z"></path><path style="fill:#B3B3B3;" d="M112.005,266.196v39.093c0,3.408-2.763,6.171-6.171,6.171h-50.67c-3.408,0-6.171-2.763-6.171-6.171 v-39.093H112.005z"></path><g><path style="fill:#999999;" d="M61.428,305.288v-39.093H48.993v39.093c0,3.408,2.763,6.171,6.171,6.171H67.6 C64.191,311.459,61.428,308.697,61.428,305.288z"></path><rect x="48.994" y="266.19" style="fill:#999999;" width="63.012" height="22.609"></rect></g><path style="fill:#B3B3B3;" d="M501.131,255.169h-43.904V146.906h43.904c6.003,0,10.869,4.867,10.869,10.869V244.3 C512,250.302,507.134,255.169,501.131,255.169z"></path><path style="fill:#999999;" d="M501.131,238.212h-43.904v16.957h43.904c6.003,0,10.869-4.867,10.869-10.869v-16.957 C512,233.345,507.134,238.212,501.131,238.212z"></path><g><path style="fill:#808080;" d="M88.973,104.809H72.016V67.964c0-4.682,3.796-8.478,8.478-8.478l0,0 c4.682,0,8.478,3.796,8.478,8.478V104.809z"></path><path style="fill:#808080;" d="M300.759,53.959h-16.957V23.878c0-4.682,3.796-8.478,8.478-8.478l0,0 c4.682,0,8.478,3.796,8.478,8.478V53.959z"></path></g><path style="fill:#F7B239;" d="M273.262,31.059H311.3c4.404,0,7.974,3.57,7.974,7.974v71.72h-53.986v-71.72 C265.287,34.629,268.857,31.059,273.262,31.059z"></path><path style="fill:#E09B2D;" d="M287.958,31.059h-14.696c-4.404,0-7.974,3.57-7.974,7.974v71.72h14.696v-71.72 C279.983,34.629,283.553,31.059,287.958,31.059z"></path><path style="fill:#808080;" d="M374.239,53.959h-16.957V23.878c0-4.682,3.796-8.478,8.478-8.478l0,0 c4.682,0,8.478,3.796,8.478,8.478V53.959z"></path><path style="fill:#F95428;" d="M346.742,31.059h38.038c4.404,0,7.974,3.57,7.974,7.974v71.72h-53.986v-71.72 C338.768,34.629,342.338,31.059,346.742,31.059z"></path><path style="fill:#E54728;" d="M361.438,31.059h-14.696c-4.404,0-7.974,3.57-7.974,7.974v71.72h14.696v-71.72 C353.464,34.629,357.034,31.059,361.438,31.059z"></path><path style="fill:#E6E6E6;" d="M11.305,149.066v117.187c0,6.388,5.179,11.567,11.567,11.567h115.245 c6.388,0,11.567-5.179,11.567-11.567v-11.731c0-14.594,11.831-26.426,26.426-26.426h89.705c14.594,0,26.426,11.831,26.426,26.426 v110.312H36.229c-13.766,0-24.924,11.159-24.924,24.924V496.6h462.422V149.066c0-29.124-23.61-52.734-52.734-52.734H64.039 C34.914,96.332,11.305,119.942,11.305,149.066z"></path><g><path style="fill:#CCCCCC;" d="M36.231,364.84H56.58c-13.769,0-24.927,11.158-24.927,24.915v106.84H11.305v-106.84 C11.305,375.998,22.462,364.84,36.231,364.84z"></path><path style="fill:#CCCCCC;" d="M64.041,96.332h20.348c-29.121,0-52.736,23.604-52.736,52.736v117.184 c0,6.387,5.178,11.565,11.565,11.565H22.869c-6.387,0-11.565-5.178-11.565-11.565V149.068 C11.305,119.936,34.92,96.332,64.041,96.332z"></path><circle style="fill:#CCCCCC;" cx="234.628" cy="165.33" r="35.157"></circle></g><path style="fill:#B3B3B3;" d="M473.727,471.52H11.305C5.061,471.52,0,466.459,0,460.215c0-6.244,5.061-11.305,11.305-11.305 h462.422c6.242,0,11.305,5.061,11.305,11.305C485.032,466.459,479.969,471.52,473.727,471.52z"></path><path style="fill:#808080;" d="M80.495,140.343L80.495,140.343c-9.513,0-17.224,7.711-17.224,17.224v59.053 c0,9.513,7.711,17.224,17.224,17.224l0,0c9.513,0,17.224-7.711,17.224-17.224v-59.053C97.719,148.055,90.006,140.343,80.495,140.343 z"></path><path style="fill:#B3B3B3;" d="M277.098,165.324c0,16.595-11.497,30.5-26.962,34.185c-2.623,0.644-5.37,0.972-8.196,0.972 c-2.826,0-5.562-0.328-8.196-0.972c-15.453-3.685-26.95-17.59-26.95-34.185c0-16.584,11.497-30.5,26.95-34.185 c2.634-0.644,5.37-0.972,8.196-0.972c2.826,0,5.573,0.328,8.196,0.972C265.602,134.824,277.098,148.74,277.098,165.324z"></path><circle style="fill:#CCCCCC;" cx="330.684" cy="165.33" r="35.157"></circle><g><circle style="fill:#B3B3B3;" cx="337.466" cy="165.33" r="35.157"></circle><path style="fill:#B3B3B3;" d="M409.929,325.611h-56.538c-11.481,0-20.788,9.307-20.788,20.788v18.436h98.114v-18.436 C430.717,334.918,421.41,325.611,409.929,325.611z"></path><rect x="63.271" y="178.183" style="fill:#B3B3B3;" width="34.448" height="16.957"></rect></g><g><path style="fill:#E6E6E6;" d="M250.137,131.139v68.371c-2.623,0.644-5.37,0.972-8.196,0.972c-2.826,0-5.562-0.328-8.196-0.972 v-68.371c2.634-0.644,5.37-0.972,8.196-0.972C244.767,130.167,247.514,130.495,250.137,131.139z"></path><path style="fill:#E6E6E6;" d="M367.437,146.946l-48.345,48.345c-2.311-1.398-4.485-3.11-6.483-5.107 c-1.999-1.999-3.701-4.165-5.107-6.483l48.345-48.345c2.319,1.406,4.485,3.11,6.483,5.107 C364.329,142.462,366.039,144.637,367.437,146.946z"></path></g></svg>